<?xml version="1.0" encoding="UTF-8" standalone="no"?>
<svg width="900" height="650" xmlns="http://www.w3.org/2000/svg">
  <rect width="100%" height="100%" fill="#f5f7fa"/>
  
  <!-- Title -->
  <text x="450" y="50" font-family="Arial" font-size="24" text-anchor="middle" font-weight="bold" fill="#263238">Interactive AI Documentation Example</text>
  
  <!-- Browser window frame -->
  <rect x="50" y="80" width="800" height="540" fill="white" stroke="#b0bec5" stroke-width="2" rx="5"/>
  <rect x="50" y="80" width="800" height="30" fill="#eceff1" stroke="#b0bec5" stroke-width="1" rx="5"/>
  <circle cx="70" y="95" r="7" fill="#ff5f52" stroke="#e53935" stroke-width="1"/>
  <circle cx="90" y="95" r="7" fill="#ffbd2e" stroke="#ffb300" stroke-width="1"/>
  <circle cx="110" y="95" r="7" fill="#66bb6a" stroke="#43a047" stroke-width="1"/>
  <text x="450" y="100" font-family="Arial" font-size="12" text-anchor="middle" fill="#607d8b">https://ai-model-explorer.example.com</text>
  
  <!-- Sidebar -->
  <rect x="50" y="110" width="200" height="510" fill="#f5f7fa" stroke="#b0bec5" stroke-width="1"/>
  <text x="150" y="140" font-family="Arial" font-size="16" text-anchor="middle" font-weight="bold" fill="#263238">Model Explorer</text>
  
  <rect x="70" y="160" width="160" height="40" fill="#e3f2fd" stroke="#90caf9" stroke-width="1" rx="5"/>
  <text x="150" y="185" font-family="Arial" font-size="14" text-anchor="middle" fill="#0d47a1">Image Classification</text>
  
  <rect x="70" y="210" width="160" height="40" fill="white" stroke="#b0bec5" stroke-width="1" rx="5"/>
  <text x="150" y="235" font-family="Arial" font-size="14" text-anchor="middle" fill="#607d8b">Text Generation</text>
  
  <rect x="70" y="260" width="160" height="40" fill="white" stroke="#b0bec5" stroke-width="1" rx="5"/>
  <text x="150" y="285" font-family="Arial" font-size="14" text-anchor="middle" fill="#607d8b">Sentiment Analysis</text>
  
  <rect x="70" y="310" width="160" height="40" fill="white" stroke="#b0bec5" stroke-width="1" rx="5"/>
  <text x="150" y="335" font-family="Arial" font-size="14" text-anchor="middle" fill="#607d8b">Object Detection</text>
  
  <text x="150" y="400" font-family="Arial" font-size="14" text-anchor="middle" font-weight="bold" fill="#263238">Model Details</text>
  <rect x="70" y="410" width="160" height="180" fill="white" stroke="#b0bec5" stroke-width="1" rx="5"/>
  <text x="80" y="430" font-family="Arial" font-size="12" fill="#263238">Model: VisionNet-B</text>
  <text x="80" y="450" font-family="Arial" font-size="12" fill="#263238">Version: 2.1.3</text>
  <text x="80" y="470" font-family="Arial" font-size="12" fill="#263238">Accuracy: 94.7%</text>
  <text x="80" y="490" font-family="Arial" font-size="12" fill="#263238">Classes: 1,000</text>
  <text x="80" y="510" font-family="Arial" font-size="12" fill="#263238">Size: 180MB</text>
  <text x="80" y="530" font-family="Arial" font-size="12" fill="#263238">Framework: TensorFlow</text>
  <text x="80" y="550" font-family="Arial" font-size="12" fill="#263238">License: Apache 2.0</text>
  <text x="80" y="570" font-family="Arial" font-size="12" text-decoration="underline" fill="#1976d2">View full model card</text>
  
  <!-- Main Content Area -->
  <rect x="250" y="110" width="600" height="510" fill="white" stroke="#b0bec5" stroke-width="1"/>
  
  <!-- Main Content Header -->
  <text x="280" y="140" font-family="Arial" font-size="18" font-weight="bold" fill="#263238">Image Classification Explorer</text>
  <text x="280" y="165" font-family="Arial" font-size="14" fill="#607d8b">Upload an image or try one of our examples to see the model in action</text>
  
  <!-- Upload Area -->
  <rect x="280" y="180" width="260" height="180" fill="#f5f7fa" stroke="#b0bec5" stroke-width="1" rx="5" stroke-dasharray="5,5"/>
  <text x="410" y="270" font-family="Arial" font-size="14" text-anchor="middle" fill="#607d8b">Drop image here</text>
  <text x="410" y="290" font-family="Arial" font-size="14" text-anchor="middle" fill="#1976d2">or click to upload</text>
  
  <!-- Example Images -->
  <text x="600" y="200" font-family="Arial" font-size="14" font-weight="bold" fill="#263238">Try an example:</text>
  <rect x="570" y="210" width="60" height="60" fill="#e1f5fe" stroke="#b0bec5" stroke-width="1"/>
  <rect x="640" y="210" width="60" height="60" fill="#e8f5e9" stroke="#b0bec5" stroke-width="1"/>
  <rect x="710" y="210" width="60" height="60" fill="#fff3e0" stroke="#b0bec5" stroke-width="1"/>
  
  <!-- Simplistic icons for example images -->
  <circle cx="600" cy="240" r="20" fill="#29b6f6" stroke="none"/>
  <polygon points="640,230 670,230 700,270 610,270" fill="#66bb6a" stroke="none"/>
  <circle cx="740" cy="240" r="15" fill="#ffa726" stroke="none"/>
  <circle cx="735" cy="235" r="3" fill="black" stroke="none"/>
  <circle cx="745" cy="235" r="3" fill="black" stroke="none"/>
  <path d="M 730,245 Q 740,255 750,245" fill="none" stroke="black" stroke-width="2"/>
  
  <!-- Results Area -->
  <rect x="280" y="380" width="540" height="220" fill="#f5f7fa" stroke="#b0bec5" stroke-width="1" rx="5"/>
  <text x="310" y="410" font-family="Arial" font-size="16" font-weight="bold" fill="#263238">Model Predictions</text>
  
  <!-- Prediction bars -->
  <rect x="310" y="430" width="400" height="30" fill="#eceff1" stroke="#b0bec5" stroke-width="1" rx="3"/>
  <rect x="310" y="430" width="350" height="30" fill="#2196f3" stroke="none" rx="3"/>
  <text x="330" y="450" font-family="Arial" font-size="14" fill="white">Golden Retriever</text>
  <text x="685" y="450" font-family="Arial" font-size="14" text-anchor="end" font-weight="bold" fill="#263238">87.5%</text>
  
  <rect x="310" y="470" width="400" height="30" fill="#eceff1" stroke="#b0bec5" stroke-width="1" rx="3"/>
  <rect x="310" y="470" width="48" height="30" fill="#9c27b0" stroke="none" rx="3"/>
  <text x="330" y="490" font-family="Arial" font-size="14" fill="#263238">Labrador Retriever</text>
  <text x="685" y="490" font-family="Arial" font-size="14" text-anchor="end" font-weight="bold" fill="#263238">12.0%</text>
  
  <rect x="310" y="510" width="400" height="30" fill="#eceff1" stroke="#b0bec5" stroke-width="1" rx="3"/>
  <rect x="310" y="510" width="4" height="30" fill="#ff9800" stroke="none" rx="3"/>
  <text x="330" y="530" font-family="Arial" font-size="14" fill="#263238">Flat-Coated Retriever</text>
  <text x="685" y="530" font-family="Arial" font-size="14" text-anchor="end" font-weight="bold" fill="#263238">1.0%</text>
  
  <!-- Explanation Section -->
  <text x="310" y="560" font-family="Arial" font-size="14" font-weight="bold" fill="#263238">Why this prediction?</text>
  <rect x="730" y="550" width="70" height="25" fill="#e8f5e9" stroke="#66bb6a" stroke-width="1" rx="3"/>
  <text x="765" y="567" font-family="Arial" font-size="12" text-anchor="middle" fill="#2e7d32">Explain</text>
  
  <!-- Model Attention Map Overlay -->
  <rect x="720" y="380" width="100" height="100" fill="#f5f7fa" stroke="#b0bec5" stroke-width="1"/>
  <text x="770" y="380" font-family="Arial" font-size="10" text-anchor="middle" fill="#607d8b">Attention Map</text>
  
  <!-- Attention Map (simplified) -->
  <defs>
    <radialGradient id="attention" cx="50%" cy="50%" r="50%" fx="50%" fy="50%">
      <stop offset="0%" style="stop-color:#f44336;stop-opacity:0.8" />
      <stop offset="50%" style="stop-color:#f44336;stop-opacity:0.3" />
      <stop offset="100%" style="stop-color:#f44336;stop-opacity:0" />
    </radialGradient>
  </defs>
  <rect x="720" y="390" width="100" height="90" fill="#eceff1"/>
  <circle cx="770" cy="435" r="30" fill="url(#attention)" stroke="none"/>
  
  <!-- Interactive Controls -->
  <text x="520" y="380" font-family="Arial" font-size="14" font-weight="bold" fill="#263238">Confidence Threshold</text>
  <line x1="520" y1="400" x2="680" y2="400" stroke="#b0bec5" stroke-width="2" stroke-linecap="round"/>
  <circle cx="600" cy="400" r="8" fill="#3f51b5" stroke="#1a237e" stroke-width="2"/>
  <text x="560" y="420" font-family="Arial" font-size="12" fill="#607d8b">Lower confidence</text>
  <text x="650" y="420" font-family="Arial" font-size="12" text-anchor="end" fill="#607d8b">Higher confidence</text>
  
  <!-- Animation Indicators -->
  <path d="M 770,145 Q 780,120 790,145" stroke="#f44336" stroke-width="2" stroke-dasharray="3,3" marker-end="url(#arrow)" fill="none">
    <animate attributeName="d" from="M 770,145 Q 780,120 790,145" to="M 770,145 Q 770,120 770,145" dur="2s" repeatCount="indefinite"/>
  </path>
  
  <path d="M 450,510 Q 470,530 490,510" stroke="#f44336" stroke-width="2" stroke-dasharray="3,3" marker-end="url(#arrow)" fill="none">
    <animate attributeName="d" from="M 450,510 Q 470,530 490,510" to="M 450,510 Q 470,490 490,510" dur="2s" repeatCount="indefinite" begin="1s"/>
  </path>
  
  <defs>
    <marker id="arrow" markerWidth="10" markerHeight="10" refX="9" refY="3" orient="auto" markerUnits="strokeWidth">
      <path d="M0,0 L0,6 L9,3 z" fill="#f44336"/>
    </marker>
  </defs>
  
  <!-- Animation Notes -->
  <text x="780" y="175" font-family="Arial" font-size="12" fill="#d32f2f" text-anchor="middle" font-style="italic">Interactive demo!</text>
  <text x="500" y="540" font-family="Arial" font-size="12" fill="#d32f2f" text-anchor="middle" font-style="italic">Results update in real-time</text>
  
</svg> 