<?xml version="1.0" encoding="UTF-8" standalone="no"?>
<svg width="800" height="500" viewBox="0 0 800 500" xmlns="http://www.w3.org/2000/svg" xmlns:xlink="http://www.w3.org/1999/xlink" version="1.1">
  <!-- Background -->
  <defs>
    <linearGradient id="bg-gradient" x1="0%" y1="0%" x2="100%" y2="100%">
      <stop offset="0%" stop-color="#e1f5fe" />
      <stop offset="100%" stop-color="#bbdefb" />
    </linearGradient>
    
    <!-- Glowing effect for AI nodes -->
    <filter id="glow" x="-30%" y="-30%" width="160%" height="160%">
      <feGaussianBlur in="SourceGraphic" stdDeviation="5" result="blur" />
      <feColorMatrix in="blur" mode="matrix" values="1 0 0 0 0  0 1 0 0 0  0 0 1 0 0  0 0 0 18 -7" result="glow" />
      <feComposite in="SourceGraphic" in2="glow" operator="over" />
    </filter>
    
    <!-- Document texture -->
    <pattern id="document-pattern" patternUnits="userSpaceOnUse" width="30" height="30" patternTransform="rotate(45)">
      <line x1="0" y1="0" x2="0" y2="30" stroke="#f0f7ff" stroke-width="20" />
    </pattern>
  </defs>
  
  <!-- Background rectangle -->
  <rect width="800" height="450" fill="url(#bg-gradient)" rx="10" ry="10" />
  
  <!-- Middle transition arrow -->
  <path d="M400,80 L400,370 M380,340 L400,370 L420,340" stroke="#2563eb" stroke-width="5" stroke-linecap="round" stroke-linejoin="round" fill="none" />
  
  <!-- Left side: Complex AI Concepts -->
  <g transform="translate(200, 225)">
    <!-- Neural network representation -->
    <g filter="url(#glow)">
      <!-- Nodes (neurons) -->
      <circle cx="-120" cy="-70" r="15" fill="#3b82f6" />
      <circle cx="-120" cy="0" r="15" fill="#3b82f6" />
      <circle cx="-120" cy="70" r="15" fill="#3b82f6" />
      
      <circle cx="-40" cy="-90" r="15" fill="#3b82f6" />
      <circle cx="-40" cy="-30" r="15" fill="#3b82f6" />
      <circle cx="-40" cy="30" r="15" fill="#3b82f6" />
      <circle cx="-40" cy="90" r="15" fill="#3b82f6" />
      
      <circle cx="40" cy="-70" r="15" fill="#3b82f6" />
      <circle cx="40" cy="0" r="15" fill="#3b82f6" />
      <circle cx="40" cy="70" r="15" fill="#3b82f6" />
      
      <!-- Connections between nodes -->
      <!-- Input to hidden layer -->
      <line x1="-120" y1="-70" x2="-40" y2="-90" stroke="#93c5fd" stroke-width="2" />
      <line x1="-120" y1="-70" x2="-40" y2="-30" stroke="#93c5fd" stroke-width="2" />
      <line x1="-120" y1="-70" x2="-40" y2="30" stroke="#93c5fd" stroke-width="2" />
      <line x1="-120" y1="-70" x2="-40" y2="90" stroke="#93c5fd" stroke-width="2" />
      
      <line x1="-120" y1="0" x2="-40" y2="-90" stroke="#93c5fd" stroke-width="2" />
      <line x1="-120" y1="0" x2="-40" y2="-30" stroke="#93c5fd" stroke-width="2" />
      <line x1="-120" y1="0" x2="-40" y2="30" stroke="#93c5fd" stroke-width="2" />
      <line x1="-120" y1="0" x2="-40" y2="90" stroke="#93c5fd" stroke-width="2" />
      
      <line x1="-120" y1="70" x2="-40" y2="-90" stroke="#93c5fd" stroke-width="2" />
      <line x1="-120" y1="70" x2="-40" y2="-30" stroke="#93c5fd" stroke-width="2" />
      <line x1="-120" y1="70" x2="-40" y2="30" stroke="#93c5fd" stroke-width="2" />
      <line x1="-120" y1="70" x2="-40" y2="90" stroke="#93c5fd" stroke-width="2" />
      
      <!-- Hidden to output layer -->
      <line x1="-40" y1="-90" x2="40" y2="-70" stroke="#93c5fd" stroke-width="2" />
      <line x1="-40" y1="-90" x2="40" y2="0" stroke="#93c5fd" stroke-width="2" />
      <line x1="-40" y1="-90" x2="40" y2="70" stroke="#93c5fd" stroke-width="2" />
      
      <line x1="-40" y1="-30" x2="40" y2="-70" stroke="#93c5fd" stroke-width="2" />
      <line x1="-40" y1="-30" x2="40" y2="0" stroke="#93c5fd" stroke-width="2" />
      <line x1="-40" y1="-30" x2="40" y2="70" stroke="#93c5fd" stroke-width="2" />
      
      <line x1="-40" y1="30" x2="40" y2="-70" stroke="#93c5fd" stroke-width="2" />
      <line x1="-40" y1="30" x2="40" y2="0" stroke="#93c5fd" stroke-width="2" />
      <line x1="-40" y1="30" x2="40" y2="70" stroke="#93c5fd" stroke-width="2" />
      
      <line x1="-40" y1="90" x2="40" y2="-70" stroke="#93c5fd" stroke-width="2" />
      <line x1="-40" y1="90" x2="40" y2="0" stroke="#93c5fd" stroke-width="2" />
      <line x1="-40" y1="90" x2="40" y2="70" stroke="#93c5fd" stroke-width="2" />
    </g>
    
    <!-- Complex code and equations floating around -->
    <g font-family="'Courier New', monospace" font-size="10" fill="#1e3a8a">
      <text x="-160" y="-120" transform="rotate(-10)">model = Sequential([</text>
      <text x="-150" y="-105" transform="rotate(-10)">  Dense(128, activation='relu'),</text>
      <text x="-140" y="-90" transform="rotate(-10)">  Dropout(0.2),</text>
      <text x="-130" y="-75" transform="rotate(-10)">  Dense(10, activation='softmax')</text>
      <text x="-120" y="-60" transform="rotate(-10)">])</text>
      
      <text x="-100" y="120" transform="rotate(5)">Y = sigmoid(W · X + b)</text>
      <text x="-150" y="140" transform="rotate(5)">loss = -∑ y·log(ŷ) + (1-y)·log(1-ŷ)</text>
      
      <text x="80" y="-120" transform="rotate(15)">LSTM(units=64, return_sequences=True)</text>
      <text x="70" y="-100" transform="rotate(15)">Transformer(num_heads=8, dim=512)</text>
    </g>
    
    <!-- Label -->
    <text x="0" y="160" font-family="Arial, sans-serif" font-size="20" fill="#1e3a8a" text-anchor="middle" font-weight="bold">Complex AI Concepts</text>
  </g>
  
  <!-- Right side: Clear Documentation -->
  <g transform="translate(600, 225)">
    <!-- Document with organized sections -->
    <rect x="-150" y="-120" width="300" height="240" fill="white" rx="5" ry="5" stroke="#e5e7eb" stroke-width="1" />
    <rect x="-150" y="-120" width="300" height="240" fill="url(#document-pattern)" opacity="0.1" rx="5" ry="5" />
    
    <!-- Document header -->
    <rect x="-150" y="-120" width="300" height="40" fill="#f0f7ff" rx="5" ry="5" />
    <text x="0" y="-95" font-family="Arial, sans-serif" font-size="16" fill="#1e3a8a" text-anchor="middle" font-weight="bold">Model Documentation</text>
    
    <!-- Document content -->
    <!-- Section 1: Overview -->
    <text x="-135" y="-65" font-family="Arial, sans-serif" font-size="14" fill="#1e3a8a" font-weight="bold">Overview</text>
    <line x1="-135" y1="-60" x2="135" y2="-60" stroke="#e5e7eb" stroke-width="1" />
    <rect x="-135" y="-50" width="270" height="8" fill="#d1d5db" rx="2" ry="2" />
    <rect x="-135" y="-37" width="200" height="8" fill="#d1d5db" rx="2" ry="2" />
    
    <!-- Section 2: Technical Details -->
    <text x="-135" y="-15" font-family="Arial, sans-serif" font-size="14" fill="#1e3a8a" font-weight="bold">Technical Details</text>
    <line x1="-135" y1="-10" x2="135" y2="-10" stroke="#e5e7eb" stroke-width="1" />
    <rect x="-135" y="0" width="270" height="8" fill="#d1d5db" rx="2" ry="2" />
    <rect x="-135" y="13" width="230" height="8" fill="#d1d5db" rx="2" ry="2" />
    <rect x="-135" y="26" width="250" height="8" fill="#d1d5db" rx="2" ry="2" />
    
    <!-- Section 3: Usage Examples -->
    <text x="-135" y="50" font-family="Arial, sans-serif" font-size="14" fill="#1e3a8a" font-weight="bold">Usage Examples</text>
    <line x1="-135" y1="55" x2="135" y2="55" stroke="#e5e7eb" stroke-width="1" />
    <rect x="-135" y="65" width="50" height="15" fill="#bfdbfe" rx="2" ry="2" />
    <rect x="-75" y="65" width="175" height="15" fill="#d1d5db" rx="2" ry="2" />
    <rect x="-135" y="85" width="270" height="8" fill="#d1d5db" rx="2" ry="2" />
    
    <!-- Icons to show visual elements -->
    <circle cx="-110" cy="50" r="3" fill="#2563eb" />
    <circle cx="-100" cy="50" r="3" fill="#2563eb" />
    <circle cx="-90" cy="50" r="3" fill="#2563eb" />
    
    <!-- Label -->
    <text x="0" y="160" font-family="Arial, sans-serif" font-size="20" fill="#1e3a8a" text-anchor="middle" font-weight="bold">Crystal-Clear Documentation</text>
  </g>
  
  <!-- Title at the top -->
  <text x="400" y="40" font-family="Arial, sans-serif" font-size="24" fill="#1e3a8a" text-anchor="middle" font-weight="bold">Transforming Complex AI into Accessible Documentation</text>
</svg> 