<?xml version="1.0" encoding="UTF-8" standalone="no"?>
<svg width="800" height="700" xmlns="http://www.w3.org/2000/svg">
  <rect width="100%" height="100%" fill="#f8f9fa"/>
  
  <!-- Title -->
  <text x="400" y="50" font-family="Arial" font-size="24" text-anchor="middle" font-weight="bold" fill="#263238">Documenting Confidence Scores in AI APIs</text>
  
  <!-- Main sections background -->
  <rect x="50" y="80" width="700" height="580" fill="white" stroke="#b0bec5" stroke-width="2" rx="10"/>
  
  <!-- What Confidence Means Section -->
  <rect x="70" y="100" width="310" height="270" fill="#e3f2fd" stroke="#2196f3" stroke-width="1" rx="5"/>
  <text x="225" y="130" font-family="Arial" font-size="18" text-anchor="middle" font-weight="bold" fill="#0d47a1">What Confidence Means</text>
  
  <!-- Confidence spectrum visualization -->
  <defs>
    <linearGradient id="confidenceGradient" x1="0%" y1="0%" x2="100%" y2="0%">
      <stop offset="0%" style="stop-color:#ef5350;stop-opacity:1" />
      <stop offset="50%" style="stop-color:#ffca28;stop-opacity:1" />
      <stop offset="100%" style="stop-color:#66bb6a;stop-opacity:1" />
    </linearGradient>
  </defs>
  
  <rect x="90" y="150" width="270" height="30" fill="url(#confidenceGradient)" stroke="#90a4ae" stroke-width="1" rx="3"/>
  <line x1="90" y1="190" x2="360" y2="190" stroke="#90a4ae" stroke-width="1"/>
  <line x1="90" y1="185" x2="90" y2="195" stroke="#90a4ae" stroke-width="1"/>
  <line x1="157.5" y1="185" x2="157.5" y2="195" stroke="#90a4ae" stroke-width="1"/>
  <line x1="225" y1="185" x2="225" y2="195" stroke="#90a4ae" stroke-width="1"/>
  <line x1="292.5" y1="185" x2="292.5" y2="195" stroke="#90a4ae" stroke-width="1"/>
  <line x1="360" y1="185" x2="360" y2="195" stroke="#90a4ae" stroke-width="1"/>
  
  <text x="90" y="210" font-family="Arial" font-size="12" text-anchor="middle" fill="#d32f2f">0.0</text>
  <text x="157.5" y="210" font-family="Arial" font-size="12" text-anchor="middle" fill="#f57c00">0.25</text>
  <text x="225" y="210" font-family="Arial" font-size="12" text-anchor="middle" fill="#ffa000">0.5</text>
  <text x="292.5" y="210" font-family="Arial" font-size="12" text-anchor="middle" fill="#7cb342">0.75</text>
  <text x="360" y="210" font-family="Arial" font-size="12" text-anchor="middle" fill="#388e3c">1.0</text>
  
  <!-- Explanation text -->
  <rect x="90" y="230" width="270" height="120" fill="#f5f5f5" stroke="#e0e0e0" stroke-width="1" rx="3"/>
  <text x="100" y="250" font-family="Arial" font-size="14" font-weight="bold" fill="#263238">Confidence scores indicate:</text>
  <text x="100" y="275" font-family="Arial" font-size="14" fill="#263238">• Probability estimate, not a guarantee</text>
  <text x="100" y="300" font-family="Arial" font-size="14" fill="#263238">• Model's certainty about its prediction</text>
  <text x="100" y="325" font-family="Arial" font-size="14" fill="#263238">• Should be interpreted with context</text>
  <text x="100" y="350" font-family="Arial" font-size="14" fill="#263238">• Values range from 0.0 (0%) to 1.0 (100%)</text>
  
  <!-- Recommended Thresholds Section -->
  <rect x="420" y="100" width="310" height="270" fill="#e8f5e9" stroke="#4caf50" stroke-width="1" rx="5"/>
  <text x="575" y="130" font-family="Arial" font-size="18" text-anchor="middle" font-weight="bold" fill="#2e7d32">Recommended Thresholds</text>
  
  <!-- Applications and thresholds -->
  <rect x="440" y="150" width="270" height="200" fill="#f5f5f5" stroke="#e0e0e0" stroke-width="1" rx="3"/>
  
  <!-- Mission-critical row -->
  <text x="450" y="175" font-family="Arial" font-size="14" font-weight="bold" fill="#263238">Mission-critical applications:</text>
  <rect x="450" y="185" width="200" height="20" fill="#e0e0e0" stroke="none" rx="3"/>
  <rect x="450" y="185" width="160" height="20" fill="#66bb6a" stroke="none" rx="3"/>
  <text x="660" y="200" font-family="Arial" font-size="14" text-anchor="middle" fill="#2e7d32">0.8+</text>
  <text x="660" y="220" font-family="Arial" font-size="12" text-anchor="middle" font-style="italic" fill="#546e7a">High precision</text>
  
  <!-- General applications row -->
  <text x="450" y="245" font-family="Arial" font-size="14" font-weight="bold" fill="#263238">General applications:</text>
  <rect x="450" y="255" width="200" height="20" fill="#e0e0e0" stroke="none" rx="3"/>
  <rect x="450" y="255" width="120" height="20" fill="#ffca28" stroke="none" rx="3"/>
  <text x="660" y="270" font-family="Arial" font-size="14" text-anchor="middle" fill="#f57c00">0.6+</text>
  <text x="660" y="290" font-family="Arial" font-size="12" text-anchor="middle" font-style="italic" fill="#546e7a">Balance of precision/recall</text>
  
  <!-- Suggestive features row -->
  <text x="450" y="315" font-family="Arial" font-size="14" font-weight="bold" fill="#263238">Suggestive features:</text>
  <rect x="450" y="325" width="200" height="20" fill="#e0e0e0" stroke="none" rx="3"/>
  <rect x="450" y="325" width="60" height="20" fill="#ef5350" stroke="none" rx="3"/>
  <text x="660" y="340" font-family="Arial" font-size="14" text-anchor="middle" fill="#c62828">0.3+</text>
  <text x="660" y="360" font-family="Arial" font-size="12" text-anchor="middle" font-style="italic" fill="#546e7a">Showing possibilities</text>
  
  <!-- Confidence Visualization Section -->
  <rect x="70" y="390" width="660" height="250" fill="#e8eaf6" stroke="#3f51b5" stroke-width="1" rx="5"/>
  <text x="400" y="420" font-family="Arial" font-size="18" text-anchor="middle" font-weight="bold" fill="#3f51b5">Visualizing Confidence</text>
  
  <!-- Example visualizations -->
  <rect x="90" y="440" width="300" height="180" fill="white" stroke="#e0e0e0" stroke-width="1" rx="3"/>
  
  <!-- Example 1: Color-coded results -->
  <text x="100" y="460" font-family="Arial" font-size="14" font-weight="bold" fill="#263238">Color-coded results:</text>
  <rect x="100" y="470" width="200" height="35" fill="#f5f5f5" stroke="#e0e0e0" stroke-width="1" rx="3"/>
  <text x="110" y="492" font-family="Arial" font-size="14" fill="#388e3c">Dog (0.92)</text>
  <rect x="100" y="510" width="200" height="35" fill="#f5f5f5" stroke="#e0e0e0" stroke-width="1" rx="3"/>
  <text x="110" y="532" font-family="Arial" font-size="14" fill="#ffa000">Cat (0.63)</text>
  <rect x="100" y="550" width="200" height="35" fill="#f5f5f5" stroke="#e0e0e0" stroke-width="1" rx="3"/>
  <text x="110" y="572" font-family="Arial" font-size="14" fill="#d32f2f">Fox (0.31)</text>
  
  <!-- Example 2: Confidence bars -->
  <rect x="410" y="440" width="300" height="180" fill="white" stroke="#e0e0e0" stroke-width="1" rx="3"/>
  <text x="420" y="460" font-family="Arial" font-size="14" font-weight="bold" fill="#263238">Progress bar style:</text>
  
  <text x="420" y="485" font-family="Arial" font-size="14" fill="#263238">Dog</text>
  <rect x="470" y="475" width="200" height="15" fill="#e0e0e0" stroke="none" rx="7.5"/>
  <rect x="470" y="475" width="184" height="15" fill="#66bb6a" stroke="none" rx="7.5"/>
  <text x="680" y="487" font-family="Arial" font-size="12" text-anchor="end" fill="#388e3c">92%</text>
  
  <text x="420" y="520" font-family="Arial" font-size="14" fill="#263238">Cat</text>
  <rect x="470" y="510" width="200" height="15" fill="#e0e0e0" stroke="none" rx="7.5"/>
  <rect x="470" y="510" width="126" height="15" fill="#ffca28" stroke="none" rx="7.5"/>
  <text x="680" y="522" font-family="Arial" font-size="12" text-anchor="end" fill="#f57c00">63%</text>
  
  <text x="420" y="555" font-family="Arial" font-size="14" fill="#263238">Fox</text>
  <rect x="470" y="545" width="200" height="15" fill="#e0e0e0" stroke="none" rx="7.5"/>
  <rect x="470" y="545" width="62" height="15" fill="#ef5350" stroke="none" rx="7.5"/>
  <text x="680" y="557" font-family="Arial" font-size="12" text-anchor="end" fill="#c62828">31%</text>
  
  <!-- Code example section -->
  <rect x="200" y="630" width="400" height="30" fill="#e1f5fe" stroke="#03a9f4" stroke-width="1" rx="5"/>
  <text x="400" y="650" font-family="Arial" font-size="14" text-anchor="middle" fill="#0288d1">Include code examples for filtering by confidence</text>
  
  <!-- Example code -->
  <rect x="220" y="670" width="360" height="20" fill="#f5f5f5" stroke="#e0e0e0" stroke-width="1" rx="3"/>
  <text x="400" y="685" font-family="Courier New" font-size="12" text-anchor="middle" fill="#263238">results.filter(r => r.confidence > threshold)</text>
</svg> 