<?xml version="1.0" encoding="UTF-8" standalone="no"?>
<svg width="900" height="700" xmlns="http://www.w3.org/2000/svg">
  <rect width="100%" height="100%" fill="#f5f7fa"/>
  
  <!-- Title -->
  <text x="450" y="50" font-family="Arial" font-size="24" text-anchor="middle" font-weight="bold" fill="#263238">Interactive API Documentation for AI Services</text>
  
  <!-- Main browser window -->
  <rect x="50" y="80" width="800" height="580" fill="white" stroke="#b0bec5" stroke-width="2" rx="8"/>
  
  <!-- Browser controls -->
  <rect x="50" y="80" width="800" height="40" fill="#eceff1" stroke="#b0bec5" stroke-width="1" rx="8"/>
  <circle cx="80" y="100" r="8" fill="#ef5350" stroke="none"/>
  <circle cx="105" y="100" r="8" fill="#ffca28" stroke="none"/>
  <circle cx="130" y="100" r="8" fill="#66bb6a" stroke="none"/>
  <rect x="200" y="90" width="500" height="20" fill="white" stroke="#b0bec5" stroke-width="1" rx="10"/>
  <text x="450" y="105" font-family="Arial" font-size="12" text-anchor="middle" fill="#546e7a">https://docs.example.com/api/vision</text>
  
  <!-- Left side navigation -->
  <rect x="50" y="120" width="200" height="540" fill="#f5f5f5" stroke="#e0e0e0" stroke-width="1"/>
  <text x="150" y="150" font-family="Arial" font-size="16" text-anchor="middle" font-weight="bold" fill="#263238">API Documentation</text>
  
  <rect x="70" y="170" width="160" height="30" fill="#e3f2fd" stroke="#2196f3" stroke-width="1" rx="5"/>
  <text x="150" y="190" font-family="Arial" font-size="14" text-anchor="middle" fill="#0d47a1">Getting Started</text>
  
  <rect x="70" y="210" width="160" height="30" fill="#e3f2fd" stroke="#2196f3" stroke-width="1" rx="5"/>
  <text x="150" y="230" font-family="Arial" font-size="14" text-anchor="middle" fill="#0d47a1">Authentication</text>
  
  <rect x="70" y="250" width="160" height="30" fill="#1976d2" stroke="#0d47a1" stroke-width="1" rx="5"/>
  <text x="150" y="270" font-family="Arial" font-size="14" text-anchor="middle" font-weight="bold" fill="white">Vision API</text>
  
  <rect x="80" y="290" width="150" height="25" fill="#bbdefb" stroke="none" rx="3"/>
  <text x="155" y="307" font-family="Arial" font-size="12" text-anchor="middle" fill="#0d47a1">Object Detection</text>
  
  <rect x="80" y="320" width="150" height="25" fill="#bbdefb" stroke="none" rx="3"/>
  <text x="155" y="337" font-family="Arial" font-size="12" text-anchor="middle" fill="#0d47a1">Face Recognition</text>
  
  <rect x="80" y="350" width="150" height="25" fill="#bbdefb" stroke="none" rx="3"/>
  <text x="155" y="367" font-family="Arial" font-size="12" text-anchor="middle" fill="#0d47a1">Text Recognition</text>
  
  <rect x="70" y="390" width="160" height="30" fill="#e3f2fd" stroke="#2196f3" stroke-width="1" rx="5"/>
  <text x="150" y="410" font-family="Arial" font-size="14" text-anchor="middle" fill="#0d47a1">Language API</text>
  
  <rect x="70" y="430" width="160" height="30" fill="#e3f2fd" stroke="#2196f3" stroke-width="1" rx="5"/>
  <text x="150" y="450" font-family="Arial" font-size="14" text-anchor="middle" fill="#0d47a1">Error Handling</text>
  
  <rect x="70" y="470" width="160" height="30" fill="#e3f2fd" stroke="#2196f3" stroke-width="1" rx="5"/>
  <text x="150" y="490" font-family="Arial" font-size="14" text-anchor="middle" fill="#0d47a1">Rate Limiting</text>
  
  <!-- Main content area -->
  <rect x="250" y="120" width="600" height="540" fill="white" stroke="none"/>
  
  <!-- API Endpoint Header -->
  <text x="280" y="150" font-family="Arial" font-size="22" font-weight="bold" fill="#263238">Object Detection API</text>
  
  <text x="280" y="180" font-family="Arial" font-size="14" fill="#546e7a">Detect and identify objects in images with confidence scores.</text>
  
  <!-- Endpoint details -->
  <rect x="280" y="200" width="540" height="40" fill="#e3f2fd" stroke="#2196f3" stroke-width="1" rx="5"/>
  <text x="310" y="225" font-family="Arial" font-size="16" font-weight="bold" fill="#0d47a1">POST</text>
  <text x="360" y="225" font-family="Courier New" font-size="16" fill="#0d47a1">https://api.example.com/v2/vision/detect</text>
  
  <!-- Try It Now section -->
  <rect x="280" y="260" width="540" height="380" fill="#fafafa" stroke="#e0e0e0" stroke-width="1" rx="5"/>
  <text x="550" y="285" font-family="Arial" font-size="18" text-anchor="middle" font-weight="bold" fill="#263238">Try It Now</text>
  
  <!-- Request section -->
  <rect x="300" y="300" width="235" height="320" fill="white" stroke="#e0e0e0" stroke-width="1" rx="3"/>
  <text x="320" y="325" font-family="Arial" font-size="16" font-weight="bold" fill="#263238">Request</text>
  
  <!-- Parameters -->
  <text x="320" y="355" font-family="Arial" font-size="14" fill="#263238">Image URL:</text>
  <rect x="320" y="365" width="195" height="30" fill="#f5f5f5" stroke="#e0e0e0" stroke-width="1" rx="3"/>
  <text x="330" y="385" font-family="Courier New" font-size="12" fill="#546e7a">https://example.com/dog.jpg</text>
  
  <text x="320" y="415" font-family="Arial" font-size="14" fill="#263238">Confidence Threshold:</text>
  <rect x="320" y="425" width="195" height="5" fill="#e0e0e0" stroke="none" rx="2.5"/>
  <circle cx="408" y="427.5" r="10" fill="#2196f3" stroke="white" stroke-width="2"/>
  <text x="320" y="445" font-family="Arial" font-size="12" fill="#546e7a">0.6</text>
  <text x="515" y="445" font-family="Arial" font-size="12" text-anchor="end" fill="#546e7a">0.0</text>
  
  <text x="320" y="475" font-family="Arial" font-size="14" fill="#263238">Max Results:</text>
  <rect x="320" y="485" width="60" height="30" fill="#f5f5f5" stroke="#e0e0e0" stroke-width="1" rx="3"/>
  <text x="350" y="505" font-family="Courier New" font-size="12" text-anchor="middle" fill="#546e7a">5</text>
  
  <rect x="320" y="535" width="195" height="40" fill="#1976d2" stroke="none" rx="5"/>
  <text x="418" y="560" font-family="Arial" font-size="16" text-anchor="middle" font-weight="bold" fill="white">Try It</text>
  
  <!-- Response section -->
  <rect x="565" y="300" width="235" height="320" fill="white" stroke="#e0e0e0" stroke-width="1" rx="3"/>
  <text x="585" y="325" font-family="Arial" font-size="16" font-weight="bold" fill="#263238">Response</text>
  
  <!-- Response visualization with image -->
  <rect x="585" y="340" width="195" height="120" fill="#f5f5f5" stroke="#e0e0e0" stroke-width="1" rx="3"/>
  <!-- Image placeholder -->
  <path d="M 585,340 L 780,340 L 780,460 L 585,460 Z" fill="#78909c" fill-opacity="0.2" stroke="none"/>
  <text x="683" y="405" font-family="Arial" font-size="12" text-anchor="middle" fill="#546e7a">[Image Preview]</text>
  
  <!-- Object bounding box -->
  <rect x="630" y="380" width="80" height="60" fill="none" stroke="#f44336" stroke-width="2" rx="3"/>
  <rect x="630" y="365" width="50" height="20" fill="#f44336" stroke="none" rx="3"/>
  <text x="655" y="380" font-family="Arial" font-size="12" text-anchor="middle" font-weight="bold" fill="white">Dog: 0.92</text>
  
  <!-- JSON response -->
  <rect x="585" y="470" width="195" height="130" fill="#f5f5f5" stroke="#e0e0e0" stroke-width="1" rx="3"/>
  <text x="595" y="490" font-family="Courier New" font-size="12" fill="#263238">{</text>
  <text x="605" y="510" font-family="Courier New" font-size="12" fill="#263238">"objects": [</text>
  <text x="615" y="530" font-family="Courier New" font-size="12" fill="#263238">{ "label": "dog",</text>
  <text x="625" y="550" font-family="Courier New" font-size="12" fill="#263238">"confidence": 0.92,</text>
  <text x="625" y="570" font-family="Courier New" font-size="12" fill="#263238">"bbox": [630, 380, 80, 60]</text>
  <text x="615" y="590" font-family="Courier New" font-size="12" fill="#263238">}</text>
  <text x="605" y="610" font-family="Courier New" font-size="12" fill="#263238">]</text>
  <text x="595" y="630" font-family="Courier New" font-size="12" fill="#263238">}</text>
  
  <!-- Code sample tabs -->
  <rect x="280" y="650" width="540" height="30" fill="#e8eaf6" stroke="#3f51b5" stroke-width="1" rx="5"/>
  <text x="320" y="670" font-family="Arial" font-size="14" fill="#3f51b5">Python</text>
  <text x="400" y="670" font-family="Arial" font-size="14" fill="#3f51b5">JavaScript</text>
  <text x="500" y="670" font-family="Arial" font-size="14" fill="#3f51b5">cURL</text>
  <rect x="310" y="675" width="60" height="3" fill="#3f51b5" stroke="none"/>
  
  <!-- Key features annotations -->
  <!-- Try it feature -->
  <circle cx="800" y="280" r="20" fill="#2196f3" stroke="white" stroke-width="2"/>
  <text x="800" y="285" font-family="Arial" font-size="16" text-anchor="middle" font-weight="bold" fill="white">1</text>
  
  <path d="M 800,300 L 800,320 L 750,320" stroke="#2196f3" stroke-width="2" stroke-dasharray="3,2" marker-end="url(#arrowhead)"/>
  <rect x="700" y="190" width="150" height="40" fill="#e3f2fd" stroke="#2196f3" stroke-width="1" rx="5"/>
  <text x="775" y="210" font-family="Arial" font-size="14" text-anchor="middle" font-weight="bold" fill="#0d47a1">Interactive Testing</text>
  <text x="775" y="225" font-family="Arial" font-size="12" text-anchor="middle" fill="#0d47a1">Try API calls live</text>
  
  <!-- Confidence slider -->
  <circle cx="520" y="425" r="20" fill="#4caf50" stroke="white" stroke-width="2"/>
  <text x="520" y="430" font-family="Arial" font-size="16" text-anchor="middle" font-weight="bold" fill="white">2</text>
  
  <path d="M 520,445 L 520,465 L 480,465" stroke="#4caf50" stroke-width="2" stroke-dasharray="3,2" marker-end="url(#arrowhead-green)"/>
  <rect x="430" y="470" width="150" height="40" fill="#e8f5e9" stroke="#4caf50" stroke-width="1" rx="5"/>
  <text x="505" y="490" font-family="Arial" font-size="14" text-anchor="middle" font-weight="bold" fill="#2e7d32">Confidence Adjust</text>
  <text x="505" y="505" font-family="Arial" font-size="12" text-anchor="middle" fill="#2e7d32">Try different thresholds</text>
  
  <!-- Visual results -->
  <circle cx="800" y="400" r="20" fill="#ff9800" stroke="white" stroke-width="2"/>
  <text x="800" y="405" font-family="Arial" font-size="16" text-anchor="middle" font-weight="bold" fill="white">3</text>
  
  <path d="M 800,420 L 800,440 L 750,440" stroke="#ff9800" stroke-width="2" stroke-dasharray="3,2" marker-end="url(#arrowhead-orange)"/>
  <rect x="700" y="445" width="150" height="40" fill="#fff3e0" stroke="#ff9800" stroke-width="1" rx="5"/>
  <text x="775" y="465" font-family="Arial" font-size="14" text-anchor="middle" font-weight="bold" fill="#e65100">Visual Results</text>
  <text x="775" y="480" font-family="Arial" font-size="12" text-anchor="middle" fill="#e65100">See AI outputs visually</text>
  
  <!-- Code generators -->
  <circle cx="250" y="665" r="20" fill="#673ab7" stroke="white" stroke-width="2"/>
  <text x="250" y="670" font-family="Arial" font-size="16" text-anchor="middle" font-weight="bold" fill="white">4</text>
  
  <path d="M 230,665 L 200,665" stroke="#673ab7" stroke-width="2" stroke-dasharray="3,2" marker-end="url(#arrowhead-purple)"/>
  <rect x="50" y="645" width="150" height="40" fill="#ede7f6" stroke="#673ab7" stroke-width="1" rx="5"/>
  <text x="125" y="665" font-family="Arial" font-size="14" text-anchor="middle" font-weight="bold" fill="#4527a0">Code Generators</text>
  <text x="125" y="680" font-family="Arial" font-size="12" text-anchor="middle" fill="#4527a0">For multiple languages</text>
  
  <!-- Arrow definitions -->
  <defs>
    <marker id="arrowhead" markerWidth="10" markerHeight="7" 
            refX="10" refY="3.5" orient="auto">
      <polygon points="0 0, 10 3.5, 0 7" fill="#2196f3"/>
    </marker>
    <marker id="arrowhead-green" markerWidth="10" markerHeight="7" 
            refX="10" refY="3.5" orient="auto">
      <polygon points="0 0, 10 3.5, 0 7" fill="#4caf50"/>
    </marker>
    <marker id="arrowhead-orange" markerWidth="10" markerHeight="7" 
            refX="10" refY="3.5" orient="auto">
      <polygon points="0 0, 10 3.5, 0 7" fill="#ff9800"/>
    </marker>
    <marker id="arrowhead-purple" markerWidth="10" markerHeight="7" 
            refX="10" refY="3.5" orient="auto">
      <polygon points="0 0, 10 3.5, 0 7" fill="#673ab7"/>
    </marker>
  </defs>
</svg> 