<?xml version="1.0" encoding="UTF-8" standalone="no"?>
<svg width="800" height="400" xmlns="http://www.w3.org/2000/svg">
  <rect width="100%" height="100%" fill="#f5f7fa"/>
  
  <!-- Title -->
  <text x="400" y="50" font-family="Arial" font-size="24" text-anchor="middle" fill="#080f5b">AI-ML Documentation Mastery Course Roadmap</text>
  
  <!-- Roadmap Path -->
  <path d="M 100,200 C 150,100 250,300 300,200 S 450,100 500,200 S 650,300 700,200" 
        fill="none" stroke="#3772ff" stroke-width="8" stroke-linecap="round"/>
  
  <!-- Modules -->
  <circle cx="100" cy="200" r="20" fill="#3772ff"/>
  <text x="100" y="205" font-family="Arial" font-size="12" text-anchor="middle" fill="white">1</text>
  <text x="100" y="240" font-family="Arial" font-size="14" text-anchor="middle" fill="#080f5b">Introduction</text>
  
  <circle cx="300" cy="200" r="20" fill="#3772ff"/>
  <text x="300" y="205" font-family="Arial" font-size="12" text-anchor="middle" fill="white">2</text>
  <text x="300" y="240" font-family="Arial" font-size="14" text-anchor="middle" fill="#080f5b">AI-ML Fundamentals</text>
  
  <circle cx="500" cy="200" r="20" fill="#3772ff"/>
  <text x="500" y="205" font-family="Arial" font-size="12" text-anchor="middle" fill="white">3</text>
  <text x="500" y="240" font-family="Arial" font-size="14" text-anchor="middle" fill="#080f5b">Documentation Strategies</text>
  
  <circle cx="700" cy="200" r="20" fill="#3772ff"/>
  <text x="700" y="205" font-family="Arial" font-size="12" text-anchor="middle" fill="white">4</text>
  <text x="700" y="240" font-family="Arial" font-size="14" text-anchor="middle" fill="#080f5b">Advanced Topics</text>
  
  <!-- Module Details -->
  <g transform="translate(100, 260)">
    <text x="0" y="20" font-family="Arial" font-size="12" fill="#333">• Course overview</text>
    <text x="0" y="40" font-family="Arial" font-size="12" fill="#333">• Documentation challenges</text>
    <text x="0" y="60" font-family="Arial" font-size="12" fill="#333">• Audience analysis</text>
  </g>
  
  <g transform="translate(300, 260)">
    <text x="0" y="20" font-family="Arial" font-size="12" fill="#333">• ML concepts</text>
    <text x="0" y="40" font-family="Arial" font-size="12" fill="#333">• AI architectures</text>
    <text x="0" y="60" font-family="Arial" font-size="12" fill="#333">• Evaluation metrics</text>
  </g>
  
  <g transform="translate(500, 260)">
    <text x="0" y="20" font-family="Arial" font-size="12" fill="#333">• API documentation</text>
    <text x="0" y="40" font-family="Arial" font-size="12" fill="#333">• User guides</text>
    <text x="0" y="60" font-family="Arial" font-size="12" fill="#333">• Visual documentation</text>
  </g>
  
  <g transform="translate(700, 260)">
    <text x="0" y="20" font-family="Arial" font-size="12" fill="#333">• Ethical considerations</text>
    <text x="0" y="40" font-family="Arial" font-size="12" fill="#333">• Compliance docs</text>
    <text x="0" y="60" font-family="Arial" font-size="12" fill="#333">• Version control</text>
  </g>
  
  <!-- Legend -->
  <rect x="650" y="80" width="120" height="80" rx="5" fill="white" stroke="#080f5b" stroke-width="1"/>
  <text x="660" y="100" font-family="Arial" font-size="14" fill="#080f5b">Legend:</text>
  <circle cx="670" cy="120" r="8" fill="#3772ff"/>
  <text x="685" y="125" font-family="Arial" font-size="12" fill="#333">Module</text>
  <line x1="660" y1="140" x2="680" y2="140" stroke="#3772ff" stroke-width="4" stroke-linecap="round"/>
  <text x="685" y="145" font-family="Arial" font-size="12" fill="#333">Learning path</text>
</svg> 