<?xml version="1.0" encoding="UTF-8" standalone="no"?>
<svg width="800" height="400" xmlns="http://www.w3.org/2000/svg">
  <rect width="100%" height="100%" fill="#f5f7fa"/>
  
  <!-- Center circle -->
  <circle cx="400" cy="200" r="100" fill="white" stroke="#3772ff" stroke-width="3"/>
  <text x="400" y="200" font-family="Arial" font-size="20" text-anchor="middle" fill="#080f5b">AI-ML Documentation</text>
  
  <!-- Surrounding audience boxes -->
  <rect x="100" y="80" width="180" height="50" rx="25" fill="#3772ff" opacity="0.8"/>
  <text x="190" y="110" font-family="Arial" font-size="16" text-anchor="middle" fill="white">Data Scientists</text>
  
  <rect x="520" y="80" width="180" height="50" rx="25" fill="#3772ff" opacity="0.8"/>
  <text x="610" y="110" font-family="Arial" font-size="16" text-anchor="middle" fill="white">Software Developers</text>
  
  <rect x="100" y="180" width="180" height="50" rx="25" fill="#3772ff" opacity="0.8"/>
  <text x="190" y="210" font-family="Arial" font-size="16" text-anchor="middle" fill="white">Product Managers</text>
  
  <rect x="520" y="180" width="180" height="50" rx="25" fill="#3772ff" opacity="0.8"/>
  <text x="610" y="210" font-family="Arial" font-size="16" text-anchor="middle" fill="white">End Users</text>
  
  <rect x="100" y="280" width="180" height="50" rx="25" fill="#3772ff" opacity="0.8"/>
  <text x="190" y="310" font-family="Arial" font-size="16" text-anchor="middle" fill="white">Executives</text>
  
  <rect x="520" y="280" width="180" height="50" rx="25" fill="#3772ff" opacity="0.8"/>
  <text x="610" y="310" font-family="Arial" font-size="16" text-anchor="middle" fill="white">Regulators</text>
  
  <!-- Connecting lines -->
  <line x1="280" y1="105" x2="320" y2="150" stroke="#080f5b" stroke-width="2"/>
  <line x1="520" y1="105" x2="480" y2="150" stroke="#080f5b" stroke-width="2"/>
  <line x1="280" y1="205" x2="320" y2="200" stroke="#080f5b" stroke-width="2"/>
  <line x1="520" y1="205" x2="480" y2="200" stroke="#080f5b" stroke-width="2"/>
  <line x1="280" y1="305" x2="320" y2="250" stroke="#080f5b" stroke-width="2"/>
  <line x1="520" y1="305" x2="480" y2="250" stroke="#080f5b" stroke-width="2"/>
</svg> 