<?xml version="1.0" encoding="UTF-8" standalone="no"?>
<svg width="800" height="400" xmlns="http://www.w3.org/2000/svg">
  <rect width="100%" height="100%" fill="#f5f7fa"/>
  
  <!-- Main circular path -->
  <circle cx="400" cy="200" r="150" fill="none" stroke="#080f5b" stroke-width="3" stroke-dasharray="15,5"/>
  
  <!-- Phases -->
  <circle cx="400" cy="50" r="40" fill="white" stroke="#3772ff" stroke-width="2"/>
  <text x="400" y="55" font-family="Arial" font-size="14" text-anchor="middle" fill="#080f5b">Early Dev</text>
  
  <circle cx="625" cy="200" r="40" fill="white" stroke="#3772ff" stroke-width="2"/>
  <text x="625" y="195" font-family="Arial" font-size="14" text-anchor="middle" fill="#080f5b">Production</text>
  <text x="625" y="215" font-family="Arial" font-size="14" text-anchor="middle" fill="#080f5b">Docs</text>
  
  <circle cx="400" cy="350" r="40" fill="white" stroke="#3772ff" stroke-width="2"/>
  <text x="400" y="345" font-family="Arial" font-size="14" text-anchor="middle" fill="#080f5b">User-Facing</text>
  <text x="400" y="365" font-family="Arial" font-size="14" text-anchor="middle" fill="#080f5b">Docs</text>
  
  <circle cx="175" cy="200" r="40" fill="white" stroke="#3772ff" stroke-width="2"/>
  <text x="175" y="195" font-family="Arial" font-size="14" text-anchor="middle" fill="#080f5b">Governance</text>
  <text x="175" y="215" font-family="Arial" font-size="14" text-anchor="middle" fill="#080f5b">Docs</text>
  
  <!-- Arrows -->
  <path d="M 430 72 Q 500 100 590 170" fill="none" stroke="#ff9e00" stroke-width="3" marker-end="url(#arrow)"/>
  <path d="M 600 230 Q 550 300 430 330" fill="none" stroke="#ff9e00" stroke-width="3" marker-end="url(#arrow)"/>
  <path d="M 370 330 Q 270 300 205 230" fill="none" stroke="#ff9e00" stroke-width="3" marker-end="url(#arrow)"/>
  <path d="M 200 170 Q 270 100 370 70" fill="none" stroke="#ff9e00" stroke-width="3" marker-end="url(#arrow)"/>
  
  <!-- Center text -->
  <text x="400" y="190" font-family="Arial" font-size="18" text-anchor="middle" fill="#080f5b">Documentation</text>
  <text x="400" y="215" font-family="Arial" font-size="18" text-anchor="middle" fill="#080f5b">Lifecycle</text>
  
  <!-- Arrow marker definition -->
  <defs>
    <marker id="arrow" markerWidth="10" markerHeight="10" refX="9" refY="3" orient="auto" markerUnits="strokeWidth">
      <path d="M0,0 L0,6 L9,3 z" fill="#ff9e00"/>
    </marker>
  </defs>
</svg> 